<svg width="51" height="51" viewBox="0 0 51 51" fill="none" xmlns="http://www.w3.org/2000/svg">
<path fill-rule="evenodd" clip-rule="evenodd" d="M24.9433 44.3552C21.0269 44.3552 19.2068 43.781 16.0431 41.4841C14.042 44.0681 7.70516 46.0875 7.42881 42.6326C7.42881 40.0389 6.85706 37.8473 6.20908 35.4547C5.43723 32.5069 4.56055 29.2243 4.56055 24.4677C4.56055 13.1075 13.8419 4.56104 24.8385 4.56104C35.8447 4.56104 44.4685 13.5286 44.4685 24.573C44.5055 35.4466 35.7698 44.2972 24.9433 44.3552ZM25.1053 14.3804C19.75 14.1028 15.5762 17.8258 14.6519 23.6638C13.8896 28.4969 15.2427 34.3828 16.3957 34.689C16.9484 34.823 18.3397 33.6937 19.2068 32.8228C20.6407 33.8176 22.3104 34.4151 24.0476 34.555C29.5966 34.8231 34.3381 30.5803 34.7107 25.0132C34.9276 19.4344 30.6552 14.7092 25.1053 14.39L25.1053 14.3804Z" fill="white"/>
</svg>
