<svg width="51" height="50" viewBox="0 0 51 50" fill="none" xmlns="http://www.w3.org/2000/svg">
<path fill-rule="evenodd" clip-rule="evenodd" d="M42.0261 9.22909C42.5513 9.01241 43.126 8.93768 43.6906 9.01267C44.2552 9.08767 44.789 9.30965 45.2363 9.65552C45.6837 10.0014 46.0284 10.4585 46.2344 10.9793C46.4405 11.5 46.5004 12.0654 46.4079 12.6166L41.5884 41.277C41.1209 44.0416 38.0269 45.627 35.4407 44.2499C33.2775 43.0978 30.0645 41.3228 27.1745 39.4708C25.7295 38.5437 21.3031 35.5749 21.8471 33.4624C22.3146 31.6562 29.7521 24.8687 34.0021 20.8333C35.6702 19.2478 34.9095 18.3333 32.9396 19.7916C28.0479 23.4124 20.1939 28.9187 17.5971 30.4687C15.3064 31.8353 14.1121 32.0687 12.6841 31.8353C10.0789 31.4103 7.66275 30.752 5.69075 29.9499C3.026 28.8666 3.15562 25.2749 5.68862 24.2291L42.0261 9.22909Z" fill="white"/>
<path fill-rule="evenodd" clip-rule="evenodd" d="M42.0261 9.22909C42.5513 9.01241 43.126 8.93768 43.6906 9.01267C44.2552 9.08767 44.789 9.30965 45.2363 9.65552C45.6837 10.0014 46.0284 10.4585 46.2344 10.9793C46.4405 11.5 46.5004 12.0654 46.4079 12.6166L41.5884 41.277C41.1209 44.0416 38.0269 45.627 35.4407 44.2499C33.2775 43.0978 30.0645 41.3228 27.1745 39.4708C25.7295 38.5437 21.3031 35.5749 21.8471 33.4624C22.3146 31.6562 29.7521 24.8687 34.0021 20.8333C35.6702 19.2478 34.9095 18.3333 32.9396 19.7916C28.0479 23.4124 20.1939 28.9187 17.5971 30.4687C15.3064 31.8353 14.1121 32.0687 12.6841 31.8353C10.0789 31.4103 7.66275 30.752 5.69075 29.9499C3.026 28.8666 3.15562 25.2749 5.68862 24.2291L42.0261 9.22909Z" fill="white"/>
</svg>
