<svg width="50" height="50" viewBox="0 0 50 50" fill="none" xmlns="http://www.w3.org/2000/svg">
<path d="M44.8 38.2938H40.0458C38.2479 38.2938 37.7062 36.8376 34.4833 33.6126C31.6667 30.898 30.4771 30.5605 29.7646 30.5605C28.7792 30.5605 28.5104 30.8313 28.5104 32.1876V36.4626C28.5104 37.6188 28.1354 38.2959 25.1146 38.2959C22.1839 38.099 19.342 37.2087 16.8229 35.6983C14.3037 34.1879 12.1794 32.1006 10.625 29.6084C6.93544 25.0139 4.36752 19.6227 3.125 13.8626C3.125 13.1501 3.39583 12.5043 4.75417 12.5043H9.50417C10.725 12.5043 11.1646 13.048 11.6438 14.3043C13.95 21.0918 17.8854 26.9959 19.4833 26.9959C20.0958 26.9959 20.3625 26.7251 20.3625 25.198V18.2063C20.1604 15.0168 18.4667 14.748 18.4667 13.5938C18.4881 13.2893 18.6274 13.0052 18.8549 12.8017C19.0825 12.5983 19.3804 12.4916 19.6854 12.5043H27.1521C28.1729 12.5043 28.5104 13.0126 28.5104 14.2334V23.6709C28.5104 24.6897 28.9479 25.0272 29.2562 25.0272C29.8687 25.0272 30.3396 24.6897 31.4625 23.5688C33.8685 20.6327 35.8349 17.3624 37.3 13.8605C37.4493 13.4396 37.7324 13.0792 38.1061 12.8347C38.4797 12.5901 38.9233 12.4747 39.3687 12.5063H44.1208C45.5458 12.5063 45.8479 13.2188 45.5458 14.2355C43.817 18.107 41.6784 21.7821 39.1667 25.198C38.6542 25.9793 38.45 26.3855 39.1667 27.3022C39.6375 28.0147 41.3042 29.4063 42.4229 30.7293C44.0521 32.3543 45.4042 34.2334 46.4271 36.2918C46.8354 37.6168 46.1562 38.2938 44.8 38.2938Z" fill="white"/>
</svg>
